0
SECTION
2
HEADER
9
$INSUNITS
70
4
9
$ACADVER
1
AC1014
9
$HANDSEED
5
FFFF
0
ENDSEC
0
SECTION
2
TABLES
0
TABLE
2
VPORT
5
8
100
AcDbSymbolTable
0
ENDTAB
0
TABLE
2
LTYPE
5
5
100
AcDbSymbolTable
0
LTYPE
5
14
100
AcDbSymbolTableRecord
100
AcDbLinetypeTableRecord
2
BYBLOCK
70
0
0
LTYPE
5
15
100
AcDbSymbolTableRecord
100
AcDbLinetypeTableRecord
2
BYLAYER
70
0
0
ENDTAB
0
TABLE
2
LAYER
5
2
100
AcDbSymbolTable
70
2
0
LAYER
5
50
100
AcDbSymbolTableRecord
100
AcDbLayerTableRecord
2
0
70
0
6
CONTINUOUS
0
ENDTAB
0
TABLE
2
STYLE
5
3
100
AcDbSymbolTable
70
1
0
STYLE
5
11
100
AcDbSymbolTableRecord
100
AcDbTextStyleTableRecord
2
STANDARD
70
0
0
ENDTAB
0
TABLE
2
VIEW
5
6
100
AcDbSymbolTable
70
0
0
ENDTAB
0
TABLE
2
UCS
5
7
100
AcDbSymbolTable
70
0
0
ENDTAB
0
TABLE
2
APPID
5
9
100
AcDbSymbolTable
70
2
0
APPID
5
12
100
AcDbSymbolTableRecord
100
AcDbRegAppTableRecord
2
ACAD
70
0
0
ENDTAB
0
TABLE
2
DIMSTYLE
5
A
100
AcDbSymbolTable
70
1
0
ENDTAB
0
TABLE
2
BLOCK_RECORD
5
1
100
AcDbSymbolTable
70
1
0
BLOCK_RECORD
5
1F
100
AcDbSymbolTableRecord
100
AcDbBlockTableRecord
2
*MODEL_SPACE
0
BLOCK_RECORD
5
1B
100
AcDbSymbolTableRecord
100
AcDbBlockTableRecord
2
*PAPER_SPACE
0
ENDTAB
0
ENDSEC
0
SECTION
2
BLOCKS
0
BLOCK
5
20
100
AcDbEntity
100
AcDbBlockBegin
2
*MODEL_SPACE
0
ENDBLK
5
21
100
AcDbEntity
100
AcDbBlockEnd
0
BLOCK
5
1C
100
AcDbEntity
100
AcDbBlockBegin
2
*PAPER_SPACE
0
ENDBLK
5
1D
100
AcDbEntity
100
AcDbBlockEnd
0
ENDSEC
0
SECTION
2
ENTITIES
0
LWPOLYLINE
5
100
100
AcDbEntity
8
0
100
AcDbPolyline
90
6
70
1
43
0.0
10
61.883926525025103
20
67.785699700443317
10
61.83803391819076
20
57.716209260789356
42
0.54889109683753989
10
63.257267041030055
20
56.803777894174502
10
74.226113633977633
20
61.869038734783629
42
0.64074961177245771
10
74.223378715669881
20
63.686044339434396
10
63.300424729556788
20
68.690273938479294
42
0.54495297454424441
0
LWPOLYLINE
5
101
100
AcDbEntity
8
0
100
AcDbPolyline
90
6
70
1
43
0.0
10
58.116073474975181
20
67.785699700443317
10
58.161966081809531
20
57.716209260789356
42
-0.54889109683753989
10
56.74273295897023
20
56.803777894174502
10
45.773886366022502
20
61.869038734783295
42
-0.64074961177245771
10
45.776621284330403
20
63.686044339434396
10
56.699575270443496
20
68.69027393847928
42
-0.54495297454424441
0
LWPOLYLINE
5
102
100
AcDbEntity
8
0
100
AcDbPolyline
90
6
70
1
43
0.0
10
67.177307807828896
20
57.496183967251511
10
76.316140070851347
20
61.608496613987327
42
-0.21837748082188718
10
77.316487565664204
20
61.60132886882085
10
86.101601440564522
20
57.495805875036659
42
-0.80224081156184879
10
86.058227296585059
20
57.300544576628326
10
67.219297300314693
20
57.300544576628297
42
-0.80814608038432656
0
LWPOLYLINE
5
103
100
AcDbEntity
8
0
100
AcDbPolyline
90
16
70
1
43
0.0
10
-40.000000298023096
20
55.500544576628307
10
159.99999970197689
20
55.5005445766283
10
160.00000175208294
20
60.860864472380726
10
131.00000130504813
20
60.860864472380705
42
-0.41421356237309503
10
130.00000130504813
20
61.860864472380698
10
130.00000130504813
20
63.860864531985335
42
-0.41421356237309764
10
131.0000013050481
20
64.860864531985328
10
160.00000000000014
20
64.860864531985371
10
159.99999970197689
20
70.5005445766283
10
-40.00000029802311
20
70.5005445766283
10
-39.999999999999872
20
64.860864531985172
10
-16.000000855620272
20
64.860864531985186
42
-0.41421356237309892
10
-15.000000855620268
20
63.860864531985193
10
-15.000000855620277
20
62.140224621271152
42
-0.41421356237309243
10
-16.000000855620272
20
61.140224621271145
10
-39.999999999999851
20
61.140224621271138
0
LINE
5
104
100
AcDbEntity
8
0
100
AcDbLine
10
60.000000000000156
20
55.5005445766283
30
-6.0588429376887022e-44
11
60.000000000000142
21
55.41015058249107
31
1.2509089934495035e-41
0
LWPOLYLINE
5
105
100
AcDbEntity
8
0
100
AcDbPolyline
90
6
70
1
43
0.0
10
77.316487565664204
20
64.399760284435729
42
-0.21837748082188649
10
76.316140070851347
20
64.392592539269259
10
67.17730780782891
20
68.504905186005075
42
-0.80814608038419589
10
67.219297300314693
20
68.700544576628332
10
86.058227296585059
20
68.700544576628261
42
-0.80224081156173488
10
86.101601440564536
20
68.505283278219935
0
LWPOLYLINE
5
106
100
AcDbEntity
8
0
100
AcDbPolyline
90
6
70
1
43
0.0
10
122.10416796440765
20
57.300544576628042
10
103.16565010570375
20
57.300544576628553
42
-0.80814608038697688
10
103.16456515568132
20
57.305599626087002
10
112.39809462023754
20
61.460524336188101
42
-0.21042868352115648
10
113.25391083684308
20
61.441381679493396
10
122.10514819738036
20
57.304957379865982
42
-0.80224081156288585
0
LWPOLYLINE
5
107
100
AcDbEntity
8
0
100
AcDbPolyline
90
6
70
1
43
0.0
10
-2.1041679644073574
20
57.300544576628042
10
16.834349894296526
20
57.300544576628539
42
0.80814608038476154
10
16.835434844318986
20
57.305599626087002
10
7.60190537976277
20
61.460524336188115
42
0.2104286835211579
10
6.74608916315721
20
61.441381679493396
10
-2.1051481973800756
20
57.304957379865982
42
0.80224081156190397
0
LWPOLYLINE
5
108
100
AcDbEntity
8
0
100
AcDbPolyline
90
6
70
1
43
0.0
10
110.20048602997508
20
63.674229601505075
10
99.254838496977627
20
68.628625401810638
42
0.54495297454437441
10
97.842477639197654
20
67.717604807657807
10
97.842477639197597
20
57.648009788708691
42
0.54889109683746395
10
99.265854467071065
20
56.742056113502393
10
110.21150200006869
20
61.857255332145812
42
0.64074961177246392
0
LWPOLYLINE
5
109
100
AcDbEntity
8
0
100
AcDbPolyline
90
6
70
1
43
0.0
10
91.766056996483769
20
57.648009788708748
42
-0.54889109683753967
10
90.342680168610315
20
56.742056113502464
10
79.397032635612604
20
61.85725533214557
42
-0.64074961177245549
10
79.408048605706341
20
63.674229601505075
10
90.353696138703839
20
68.628625401810822
42
-0.54495297454423675
10
91.766056996483826
20
67.717604807657864
0
LWPOLYLINE
5
110
100
AcDbEntity
8
0
100
AcDbPolyline
90
6
70
1
43
0.0
10
42.683512434336073
20
64.399760284435729
10
33.898398559435748
20
68.505283278219935
42
-0.80224081156178328
10
33.941772703415218
20
68.700544576628261
10
52.780702699685591
20
68.700544576628459
42
-0.80814608038419589
10
52.822692192171424
20
68.504905186004962
10
43.683859929148944
20
64.392592539269259
42
-0.21837748082188649
0
LWPOLYLINE
5
111
100
AcDbEntity
8
0
100
AcDbPolyline
90
6
70
1
43
0.0
10
4.5919513942939467
20
63.674229601505075
42
-0.64074961177246492
10
4.6029673643875313
20
61.857255332145812
10
-6.342680168610082
20
56.742056113502393
42
-0.54889109683746395
10
-7.7660569964835435
20
57.648009788708691
10
-7.7660569964833233
20
67.717604807657807
42
-0.54495297454437208
10
-6.3536961387035271
20
68.628625401810638
0
LWPOLYLINE
5
112
100
AcDbEntity
8
0
100
AcDbPolyline
90
6
70
1
43
0.0
10
33.941772703415218
20
57.300544576628326
10
52.780702699685591
20
57.300544576628255
42
0.80814608038432656
10
52.822692192171388
20
57.496183967251511
10
43.683859929148944
20
61.608496613987342
42
0.21837748082188721
10
42.683512434336073
20
61.60132886882085
10
33.898398559435769
20
57.495805875036645
42
0.80224081156183258
0
LWPOLYLINE
5
113
100
AcDbEntity
8
0
100
AcDbPolyline
90
6
70
1
43
0.0
10
29.65731983138997
20
56.742056113502464
10
40.602967364387524
20
61.857255332145883
42
0.64074961177245549
10
40.591951394293943
20
63.674229601505075
10
29.64630386129646
20
68.628625401810822
42
0.54495297454424196
10
28.233943003516465
20
67.717604807657864
10
28.233943003516519
20
57.648009788708748
42
0.54889109683753845
0
LWPOLYLINE
5
114
100
AcDbEntity
8
0
100
AcDbPolyline
90
4
70
1
43
0.0
10
93.88865160722986
20
68.0005445766283
10
93.88865160722986
20
58.0005445766283
42
0.99999999999999989
10
95.88865160722986
20
58.0005445766283
10
95.88865160722986
20
68.0005445766283
42
0.99999999999999989
0
LWPOLYLINE
5
115
100
AcDbEntity
8
0
100
AcDbPolyline
90
6
70
1
43
0.0
10
22.157522360802623
20
67.717604807657807
10
22.157522360802684
20
57.648009788708691
42
-0.54889109683746395
10
20.734145532929222
20
56.742056113502393
10
9.7884979999316108
20
61.857255332145826
42
-0.64074961177246537
10
9.7995139700251936
20
63.674229601505075
10
20.745161503022601
20
68.62862540181078
42
-0.54495297454437175
0
LWPOLYLINE
5
116
100
AcDbEntity
8
0
100
AcDbPolyline
90
6
70
1
43
0.0
10
115.40804860570634
20
63.674229601505075
10
126.35369613870374
20
68.628625401810794
42
-0.5449529745443692
10
127.76605699648377
20
67.717604807657807
10
127.76605699648385
20
57.648009788708691
42
-0.54889109683746939
10
126.34268016861036
20
56.742056113502393
10
115.39703263561276
20
61.857255332145826
42
-0.64074961177246392
0
LWPOLYLINE
5
117
100
AcDbEntity
8
0
100
AcDbPolyline
90
4
70
1
43
0.0
10
26.111348392770427
20
58.0005445766283
42
-0.99999999999999989
10
24.111348392770427
20
58.0005445766283
10
24.111348392770427
20
68.0005445766283
42
-0.99999999999999989
10
26.111348392770427
20
68.0005445766283
0
ARC
5
118
100
AcDbEntity
8
0
100
AcDbCircle
10
103.16565010570375
20
68.697900622122916
30
5.6927750113195694e-45
40
0.0026439545051282209
210
-1.2113573539033749e-30
220
2.4486809726094676e-28
230
1
100
AcDbArc
50
90
51
245.77309863981924
0
LWPOLYLINE
5
119
100
AcDbEntity
8
0
100
AcDbPolyline
90
6
70
1
43
0.0
10
113.25391083684308
20
64.559707473763197
10
122.10514819738036
20
68.696131773390604
42
0.80224081156288585
10
122.10416796440765
20
68.700544576628545
10
103.16565010570375
20
68.700544576628047
42
0.80814608038697688
10
103.16456515568132
20
68.695489527169599
10
112.39809462023752
20
64.540564817068486
42
0.21042868352115646
0
LWPOLYLINE
5
120
100
AcDbEntity
8
0
100
AcDbPolyline
90
6
70
1
43
0.0
10
16.83434989429653
20
68.700544576628062
42
-0.80814608038444458
10
16.835434844318993
20
68.695489527169599
10
7.6019053797627638
20
64.540564817068486
42
-0.21042868352115648
10
6.7460891631572117
20
64.559707473763197
10
-2.1051481973800672
20
68.696131773390618
42
-0.80224081156002958
10
-2.1041679644073419
20
68.700544576628545
0
ENDSEC
0
SECTION
2
OBJECTS
0
DICTIONARY
5
C
100
AcDbDictionary
3
ACAD_GROUP
350
D
3
ACAD_MLINESTYLE
350
17
0
DICTIONARY
5
D
100
AcDbDictionary
0
DICTIONARY
5
1A
330
C
100
AcDbDictionary
0
DICTIONARY
5
17
100
AcDbDictionary
0
ENDSEC
0
EOF
